<?xml version="1.0" encoding="UTF-8" standalone="no"?>
<svg
   xmlns:osb="http://www.openswatchbook.org/uri/2009/osb"
   xmlns:dc="http://purl.org/dc/elements/1.1/"
   xmlns:cc="http://creativecommons.org/ns#"
   xmlns:rdf="http://www.w3.org/1999/02/22-rdf-syntax-ns#"
   xmlns:svg="http://www.w3.org/2000/svg"
   xmlns="http://www.w3.org/2000/svg"
   xmlns:sodipodi="http://sodipodi.sourceforge.net/DTD/sodipodi-0.dtd"
   xmlns:inkscape="http://www.inkscape.org/namespaces/inkscape"
   width="128"
   height="128"
   viewBox="0 0 33.866666 33.866668"
   version="1.1"
   id="svg8"
   inkscape:version="1.0.1 (3bc2e813f5, 2020-09-07)"
   sodipodi:docname="nino.svg">
  <defs
     id="defs2">
    <linearGradient
       id="linearGradient2779"
       osb:paint="solid">
      <stop
         style="stop-color:#000000;stop-opacity:1;"
         offset="0"
         id="stop2777" />
    </linearGradient>
  </defs>
  <sodipodi:namedview
     id="base"
     pagecolor="#ffffff"
     bordercolor="#666666"
     borderopacity="1.0"
     inkscape:pageopacity="0.0"
     inkscape:pageshadow="2"
     inkscape:zoom="4.9099716"
     inkscape:cx="80.561156"
     inkscape:cy="59.865769"
     inkscape:document-units="px"
     inkscape:current-layer="layer1"
     inkscape:document-rotation="0"
     showgrid="false"
     inkscape:window-width="1920"
     inkscape:window-height="1016"
     inkscape:window-x="0"
     inkscape:window-y="27"
     inkscape:window-maximized="1"
     units="px" />
  <metadata
     id="metadata5">
    <rdf:RDF>
      <cc:Work
         rdf:about="">
        <dc:format>image/svg+xml</dc:format>
        <dc:type
           rdf:resource="http://purl.org/dc/dcmitype/StillImage" />
        <dc:title></dc:title>
      </cc:Work>
    </rdf:RDF>
  </metadata>
  <g
     inkscape:label="Calque 1"
     inkscape:groupmode="layer"
     id="layer1">
    <path
       sodipodi:nodetypes="sssccsssssssccsssssssssccsssssccss"
       id="path2869"
       d="m 10.963096,9.6470333 c -3.4854237,0 -6.2194148,1.6999707 -7.9868121,4.0930717 -1.7674023,2.393133 -2.63526839,5.455984 -2.63526839,8.391756 v 0.903331 H 9.0255884 v -0.903331 c 0,-0.441654 0.1936142,-1.302083 0.610514,-1.931289 0.4168676,-0.629212 0.9481826,-1.059089 1.8939086,-1.059089 1.881596,0 3.086327,0.938035 4.709873,2.068349 1.623542,1.13032 3.64421,2.392306 6.715865,2.392306 3.311935,0 6.044777,-1.331079 7.868446,-3.588455 1.823698,-2.257379 2.753636,-5.384789 2.753636,-8.983609 v -0.897117 h -9.176715 v 0.897117 c 0,1.485074 -0.376329,2.012373 -0.772523,2.298874 -0.396199,0.286437 -1.009044,0.367552 -1.644696,0.367552 -0.881739,0 -2.215367,-0.860336 -3.993425,-1.900127 -1.77802,-1.039791 -4.051858,-2.1493397 -7.027376,-2.1493397 z m 0,1.8004487 c 2.533804,0 4.432273,0.914434 6.117826,1.900159 1.685521,0.985693 3.111044,2.149308 4.902975,2.149308 0.741646,0 1.783418,-0.0386 2.703785,-0.703974 0.699601,-0.505863 0.946778,-1.675604 1.152549,-2.859537 h 5.669245 c -0.171287,2.7885 -0.761164,5.305235 -2.087014,6.94639 -1.49812,1.854353 -3.621151,2.915611 -6.466713,2.915611 -2.599669,0 -4.111224,-0.964387 -5.687944,-2.062103 -1.576719,-1.097717 -3.244346,-2.392302 -5.737794,-2.392302 -1.565843,0 -2.7386773,0.871563 -3.3953164,1.862741 -0.4540917,0.685411 -0.5114446,1.357553 -0.6292391,2.02475 H 2.4218071 C 2.5918208,18.950509 3.1184492,16.584652 4.4278685,14.811668 5.9214923,12.789245 8.047998,11.447482 10.963096,11.447482 Z"
       style="color:#000000;font-style:normal;font-variant:normal;font-weight:normal;font-stretch:normal;font-size:25.4px;line-height:6.61458px;font-family:'Glacial Indifference';-inkscape-font-specification:'Glacial Indifference, Normal';font-variant-ligatures:normal;font-variant-position:normal;font-variant-caps:normal;font-variant-numeric:normal;font-variant-alternates:normal;font-variant-east-asian:normal;font-feature-settings:normal;font-variation-settings:normal;text-indent:0;text-align:start;text-decoration:none;text-decoration-line:none;text-decoration-style:solid;text-decoration-color:#000000;letter-spacing:0px;word-spacing:0px;text-transform:none;writing-mode:lr-tb;direction:ltr;text-orientation:mixed;dominant-baseline:auto;baseline-shift:baseline;text-anchor:start;white-space:normal;shape-padding:0;shape-margin:0;inline-size:0;clip-rule:nonzero;display:inline;overflow:visible;visibility:visible;isolation:auto;mix-blend-mode:normal;color-interpolation:sRGB;color-interpolation-filters:linearRGB;solid-color:#000000;solid-opacity:1;vector-effect:none;fill:#000000;fill-opacity:1;fill-rule:nonzero;stroke:none;stroke-width:1.80221;stroke-linecap:butt;stroke-linejoin:miter;stroke-miterlimit:4;stroke-dasharray:none;stroke-dashoffset:0;stroke-opacity:1;color-rendering:auto;image-rendering:auto;shape-rendering:auto;text-rendering:auto;enable-background:accumulate;stop-color:#000000" />
    <path
       id="path857"
       d="M 20.396749,21.250118 C 19.769116,21.030207 18.198453,20.156122 16.90638,19.307701 14.319582,17.609124 12.517296,17.019081 10.801338,17.30899 9.3781041,17.54944 7.9910051,18.775486 7.6314353,20.110842 l -0.278658,1.034855 H 4.9460255 2.5392738 l 0.1785773,-1.346176 c 0.4722213,-3.559818 2.8025951,-6.802789 5.5629705,-7.741502 2.8587204,-0.972157 5.5681274,-0.42118 9.7242994,1.977484 2.721521,1.570686 4.420707,1.905376 6.103583,1.202229 0.796755,-0.332909 1.050566,-0.640241 1.444327,-1.748894 l 0.477707,-1.345009 h 2.711221 2.711231 l -0.143907,0.86047 c -0.635513,3.800125 -1.493273,5.641962 -3.253394,6.985918 -2.087763,1.59412 -5.229997,2.111007 -7.65914,1.259901 z"
       style="fill:#ffffff;fill-opacity:1;stroke:#000000;stroke-width:0.565381" />
  </g>
</svg>
